<mxfile host="app.diagrams.net" modified="2021-04-30T14:04:58.187Z" agent="5.0 (Windows NT 10.0; Win64; x64) AppleWebKit/537.36 (KHTML, like Gecko) Chrome/88.0.4324.150 Safari/537.36" etag="8ztbOtn9aESVnot7ZAaJ" version="14.6.9" type="github">
  <diagram id="EI-SLpZy4c11w0MKUhf8" name="Page-1">
    <mxGraphModel dx="1377" dy="762" grid="1" gridSize="10" guides="1" tooltips="1" connect="1" arrows="1" fold="1" page="1" pageScale="1" pageWidth="850" pageHeight="1100" math="0" shadow="0">
      <root>
        <mxCell id="0" />
        <mxCell id="1" parent="0" />
        <mxCell id="GBD44H0l0N1KtUBJfBsn-1" value="Welcome" style="rounded=1;whiteSpace=wrap;html=1;" parent="1" vertex="1">
          <mxGeometry x="365" y="20" width="120" height="60" as="geometry" />
        </mxCell>
        <mxCell id="GBD44H0l0N1KtUBJfBsn-8" value="Registration form" style="rounded=1;whiteSpace=wrap;html=1;" parent="1" vertex="1">
          <mxGeometry x="40" y="120" width="90" height="40" as="geometry" />
        </mxCell>
        <mxCell id="GBD44H0l0N1KtUBJfBsn-32" value="" style="endArrow=classic;html=1;entryX=0.433;entryY=-0.05;entryDx=0;entryDy=0;entryPerimeter=0;exitX=0;exitY=0.5;exitDx=0;exitDy=0;" parent="1" source="GBD44H0l0N1KtUBJfBsn-1" target="GBD44H0l0N1KtUBJfBsn-8" edge="1">
          <mxGeometry width="50" height="50" relative="1" as="geometry">
            <mxPoint x="360" y="50" as="sourcePoint" />
            <mxPoint x="84" y="120" as="targetPoint" />
            <Array as="points">
              <mxPoint x="80" y="50" />
            </Array>
          </mxGeometry>
        </mxCell>
        <mxCell id="GBD44H0l0N1KtUBJfBsn-33" value="" style="endArrow=classic;html=1;entryX=0.5;entryY=0;entryDx=0;entryDy=0;" parent="1" target="PpAkLhA8qPiQrUPgmIep-85" edge="1">
          <mxGeometry width="50" height="50" relative="1" as="geometry">
            <mxPoint x="485" y="50" as="sourcePoint" />
            <mxPoint x="740" y="90" as="targetPoint" />
            <Array as="points">
              <mxPoint x="585" y="50" />
            </Array>
          </mxGeometry>
        </mxCell>
        <mxCell id="PpAkLhA8qPiQrUPgmIep-2" value="Password Creation" style="rounded=1;whiteSpace=wrap;html=1;" parent="1" vertex="1">
          <mxGeometry x="40" y="190" width="90" height="40" as="geometry" />
        </mxCell>
        <mxCell id="PpAkLhA8qPiQrUPgmIep-3" value="Business Name" style="rounded=1;whiteSpace=wrap;html=1;" parent="1" vertex="1">
          <mxGeometry x="40" y="260" width="90" height="40" as="geometry" />
        </mxCell>
        <mxCell id="PpAkLhA8qPiQrUPgmIep-4" value="About Me" style="rounded=1;whiteSpace=wrap;html=1;" parent="1" vertex="1">
          <mxGeometry x="40" y="330" width="90" height="40" as="geometry" />
        </mxCell>
        <mxCell id="PpAkLhA8qPiQrUPgmIep-6" value="Sell Goods?" style="rounded=1;whiteSpace=wrap;html=1;" parent="1" vertex="1">
          <mxGeometry x="40" y="400" width="90" height="40" as="geometry" />
        </mxCell>
        <mxCell id="PpAkLhA8qPiQrUPgmIep-26" value="" style="edgeStyle=orthogonalEdgeStyle;rounded=0;orthogonalLoop=1;jettySize=auto;html=1;" parent="1" source="PpAkLhA8qPiQrUPgmIep-7" target="PpAkLhA8qPiQrUPgmIep-8" edge="1">
          <mxGeometry relative="1" as="geometry" />
        </mxCell>
        <mxCell id="PpAkLhA8qPiQrUPgmIep-27" value="" style="edgeStyle=orthogonalEdgeStyle;rounded=0;orthogonalLoop=1;jettySize=auto;html=1;" parent="1" source="PpAkLhA8qPiQrUPgmIep-7" target="PpAkLhA8qPiQrUPgmIep-12" edge="1">
          <mxGeometry relative="1" as="geometry" />
        </mxCell>
        <mxCell id="PpAkLhA8qPiQrUPgmIep-7" value="Sell Services?" style="rounded=1;whiteSpace=wrap;html=1;" parent="1" vertex="1">
          <mxGeometry x="40" y="470" width="90" height="40" as="geometry" />
        </mxCell>
        <mxCell id="PpAkLhA8qPiQrUPgmIep-8" value="Exit" style="rounded=1;whiteSpace=wrap;html=1;" parent="1" vertex="1">
          <mxGeometry x="40" y="540" width="90" height="40" as="geometry" />
        </mxCell>
        <mxCell id="PpAkLhA8qPiQrUPgmIep-9" value="Number of Goods" style="rounded=1;whiteSpace=wrap;html=1;" parent="1" vertex="1">
          <mxGeometry x="420" y="400" width="90" height="40" as="geometry" />
        </mxCell>
        <mxCell id="PpAkLhA8qPiQrUPgmIep-10" value="Goods details" style="rounded=1;whiteSpace=wrap;html=1;" parent="1" vertex="1">
          <mxGeometry x="420" y="470" width="90" height="40" as="geometry" />
        </mxCell>
        <mxCell id="PpAkLhA8qPiQrUPgmIep-34" value="" style="edgeStyle=orthogonalEdgeStyle;rounded=0;orthogonalLoop=1;jettySize=auto;html=1;" parent="1" source="PpAkLhA8qPiQrUPgmIep-11" target="PpAkLhA8qPiQrUPgmIep-14" edge="1">
          <mxGeometry relative="1" as="geometry" />
        </mxCell>
        <mxCell id="PpAkLhA8qPiQrUPgmIep-11" value="Sell Services?" style="rounded=1;whiteSpace=wrap;html=1;" parent="1" vertex="1">
          <mxGeometry x="420" y="540" width="90" height="40" as="geometry" />
        </mxCell>
        <mxCell id="PpAkLhA8qPiQrUPgmIep-12" value="Number of Services" style="rounded=1;whiteSpace=wrap;html=1;" parent="1" vertex="1">
          <mxGeometry x="180" y="470" width="90" height="40" as="geometry" />
        </mxCell>
        <mxCell id="PpAkLhA8qPiQrUPgmIep-13" value="Service Details" style="rounded=1;whiteSpace=wrap;html=1;" parent="1" vertex="1">
          <mxGeometry x="180" y="540" width="90" height="40" as="geometry" />
        </mxCell>
        <mxCell id="PpAkLhA8qPiQrUPgmIep-14" value="Number of Services" style="rounded=1;whiteSpace=wrap;html=1;" parent="1" vertex="1">
          <mxGeometry x="590" y="540" width="90" height="40" as="geometry" />
        </mxCell>
        <mxCell id="PpAkLhA8qPiQrUPgmIep-15" value="Number of Services" style="rounded=1;whiteSpace=wrap;html=1;" parent="1" vertex="1">
          <mxGeometry x="590" y="610" width="90" height="40" as="geometry" />
        </mxCell>
        <mxCell id="PpAkLhA8qPiQrUPgmIep-31" value="" style="endArrow=classic;html=1;entryX=0;entryY=0.5;entryDx=0;entryDy=0;" parent="1" target="PpAkLhA8qPiQrUPgmIep-9" edge="1">
          <mxGeometry width="50" height="50" relative="1" as="geometry">
            <mxPoint x="130" y="420" as="sourcePoint" />
            <mxPoint x="180" y="370" as="targetPoint" />
            <Array as="points" />
          </mxGeometry>
        </mxCell>
        <mxCell id="PpAkLhA8qPiQrUPgmIep-37" value="" style="endArrow=classic;html=1;" parent="1" target="PpAkLhA8qPiQrUPgmIep-2" edge="1">
          <mxGeometry width="50" height="50" relative="1" as="geometry">
            <mxPoint x="84" y="160" as="sourcePoint" />
            <mxPoint x="130" y="110" as="targetPoint" />
          </mxGeometry>
        </mxCell>
        <mxCell id="PpAkLhA8qPiQrUPgmIep-38" value="" style="endArrow=classic;html=1;" parent="1" edge="1">
          <mxGeometry width="50" height="50" relative="1" as="geometry">
            <mxPoint x="84.5" y="230" as="sourcePoint" />
            <mxPoint x="85.09999999999991" y="260" as="targetPoint" />
          </mxGeometry>
        </mxCell>
        <mxCell id="PpAkLhA8qPiQrUPgmIep-39" value="" style="endArrow=classic;html=1;" parent="1" edge="1">
          <mxGeometry width="50" height="50" relative="1" as="geometry">
            <mxPoint x="84.5" y="300" as="sourcePoint" />
            <mxPoint x="85.09999999999991" y="330" as="targetPoint" />
          </mxGeometry>
        </mxCell>
        <mxCell id="PpAkLhA8qPiQrUPgmIep-40" value="" style="endArrow=classic;html=1;" parent="1" edge="1">
          <mxGeometry width="50" height="50" relative="1" as="geometry">
            <mxPoint x="84.5" y="370" as="sourcePoint" />
            <mxPoint x="85.09999999999991" y="400" as="targetPoint" />
          </mxGeometry>
        </mxCell>
        <mxCell id="PpAkLhA8qPiQrUPgmIep-42" value="" style="endArrow=classic;html=1;" parent="1" edge="1">
          <mxGeometry width="50" height="50" relative="1" as="geometry">
            <mxPoint x="84.5" y="440" as="sourcePoint" />
            <mxPoint x="85.09999999999991" y="470" as="targetPoint" />
          </mxGeometry>
        </mxCell>
        <mxCell id="PpAkLhA8qPiQrUPgmIep-43" value="" style="endArrow=classic;html=1;" parent="1" edge="1">
          <mxGeometry width="50" height="50" relative="1" as="geometry">
            <mxPoint x="224.5" y="510" as="sourcePoint" />
            <mxPoint x="225.0999999999999" y="540" as="targetPoint" />
          </mxGeometry>
        </mxCell>
        <mxCell id="PpAkLhA8qPiQrUPgmIep-44" value="" style="endArrow=classic;html=1;" parent="1" edge="1">
          <mxGeometry width="50" height="50" relative="1" as="geometry">
            <mxPoint x="224.5" y="580" as="sourcePoint" />
            <mxPoint x="225.0999999999999" y="610" as="targetPoint" />
          </mxGeometry>
        </mxCell>
        <mxCell id="PpAkLhA8qPiQrUPgmIep-45" value="" style="endArrow=classic;html=1;" parent="1" edge="1">
          <mxGeometry width="50" height="50" relative="1" as="geometry">
            <mxPoint x="464.5" y="440" as="sourcePoint" />
            <mxPoint x="465.0999999999999" y="470" as="targetPoint" />
          </mxGeometry>
        </mxCell>
        <mxCell id="PpAkLhA8qPiQrUPgmIep-46" value="" style="endArrow=classic;html=1;" parent="1" edge="1">
          <mxGeometry width="50" height="50" relative="1" as="geometry">
            <mxPoint x="464.5" y="510" as="sourcePoint" />
            <mxPoint x="465.0999999999999" y="540" as="targetPoint" />
          </mxGeometry>
        </mxCell>
        <mxCell id="PpAkLhA8qPiQrUPgmIep-47" value="" style="endArrow=classic;html=1;" parent="1" edge="1">
          <mxGeometry width="50" height="50" relative="1" as="geometry">
            <mxPoint x="464.5" y="580" as="sourcePoint" />
            <mxPoint x="465.0999999999999" y="610" as="targetPoint" />
          </mxGeometry>
        </mxCell>
        <mxCell id="PpAkLhA8qPiQrUPgmIep-49" value="" style="endArrow=classic;html=1;" parent="1" edge="1">
          <mxGeometry width="50" height="50" relative="1" as="geometry">
            <mxPoint x="634.5" y="580" as="sourcePoint" />
            <mxPoint x="635.0999999999999" y="610" as="targetPoint" />
          </mxGeometry>
        </mxCell>
        <mxCell id="PpAkLhA8qPiQrUPgmIep-50" value="" style="endArrow=classic;html=1;" parent="1" edge="1">
          <mxGeometry width="50" height="50" relative="1" as="geometry">
            <mxPoint x="634.5" y="650" as="sourcePoint" />
            <mxPoint x="635.0999999999999" y="680" as="targetPoint" />
          </mxGeometry>
        </mxCell>
        <mxCell id="PpAkLhA8qPiQrUPgmIep-51" value="&lt;b&gt;&lt;font style=&quot;font-size: 14px&quot;&gt;Yes&lt;/font&gt;&lt;/b&gt;" style="text;html=1;resizable=0;autosize=1;align=center;verticalAlign=middle;points=[];fillColor=none;strokeColor=none;rounded=0;" parent="1" vertex="1">
          <mxGeometry x="230" y="390" width="40" height="20" as="geometry" />
        </mxCell>
        <mxCell id="PpAkLhA8qPiQrUPgmIep-52" value="&lt;font style=&quot;font-size: 14px&quot;&gt;&lt;b&gt;No&lt;/b&gt;&lt;/font&gt;" style="text;html=1;resizable=0;autosize=1;align=center;verticalAlign=middle;points=[];fillColor=none;strokeColor=none;rounded=0;" parent="1" vertex="1">
          <mxGeometry x="90" y="440" width="30" height="20" as="geometry" />
        </mxCell>
        <mxCell id="PpAkLhA8qPiQrUPgmIep-53" value="&lt;font style=&quot;font-size: 14px&quot;&gt;&lt;b&gt;Yes&lt;/b&gt;&lt;/font&gt;" style="text;html=1;resizable=0;autosize=1;align=center;verticalAlign=middle;points=[];fillColor=none;strokeColor=none;rounded=0;" parent="1" vertex="1">
          <mxGeometry x="140" y="460" width="40" height="20" as="geometry" />
        </mxCell>
        <mxCell id="PpAkLhA8qPiQrUPgmIep-54" value="&lt;font style=&quot;font-size: 14px&quot;&gt;&lt;b&gt;Yes&lt;/b&gt;&lt;/font&gt;" style="text;html=1;resizable=0;autosize=1;align=center;verticalAlign=middle;points=[];fillColor=none;strokeColor=none;rounded=0;" parent="1" vertex="1">
          <mxGeometry x="510" y="540" width="40" height="20" as="geometry" />
        </mxCell>
        <mxCell id="PpAkLhA8qPiQrUPgmIep-55" value="&lt;font style=&quot;font-size: 14px&quot;&gt;&lt;b&gt;No&lt;/b&gt;&lt;/font&gt;" style="text;html=1;resizable=0;autosize=1;align=center;verticalAlign=middle;points=[];fillColor=none;strokeColor=none;rounded=0;" parent="1" vertex="1">
          <mxGeometry x="470" y="580" width="30" height="20" as="geometry" />
        </mxCell>
        <mxCell id="PpAkLhA8qPiQrUPgmIep-56" value="Page Created" style="rounded=1;whiteSpace=wrap;html=1;" parent="1" vertex="1">
          <mxGeometry x="180" y="610" width="90" height="40" as="geometry" />
        </mxCell>
        <mxCell id="PpAkLhA8qPiQrUPgmIep-57" value="Page Created" style="rounded=1;whiteSpace=wrap;html=1;" parent="1" vertex="1">
          <mxGeometry x="590" y="680" width="90" height="40" as="geometry" />
        </mxCell>
        <mxCell id="PpAkLhA8qPiQrUPgmIep-65" value="Page Created" style="rounded=1;whiteSpace=wrap;html=1;" parent="1" vertex="1">
          <mxGeometry x="420" y="610" width="90" height="40" as="geometry" />
        </mxCell>
        <mxCell id="PpAkLhA8qPiQrUPgmIep-79" value="&lt;font style=&quot;font-size: 14px&quot;&gt;&lt;b&gt;New Website&lt;/b&gt;&lt;/font&gt;" style="text;html=1;strokeColor=none;fillColor=none;align=center;verticalAlign=middle;whiteSpace=wrap;rounded=0;" parent="1" vertex="1">
          <mxGeometry x="205" y="20" width="40" height="20" as="geometry" />
        </mxCell>
        <mxCell id="PpAkLhA8qPiQrUPgmIep-80" value="&lt;font style=&quot;font-size: 14px&quot;&gt;&lt;b&gt;Login&lt;/b&gt;&lt;/font&gt;" style="text;html=1;strokeColor=none;fillColor=none;align=center;verticalAlign=middle;whiteSpace=wrap;rounded=0;" parent="1" vertex="1">
          <mxGeometry x="520" y="20" width="40" height="20" as="geometry" />
        </mxCell>
        <mxCell id="PpAkLhA8qPiQrUPgmIep-82" value="Orders" style="rounded=1;whiteSpace=wrap;html=1;" parent="1" vertex="1">
          <mxGeometry x="440" y="130" width="90" height="40" as="geometry" />
        </mxCell>
        <mxCell id="PpAkLhA8qPiQrUPgmIep-84" value="Products" style="rounded=1;whiteSpace=wrap;html=1;" parent="1" vertex="1">
          <mxGeometry x="335" y="130" width="90" height="40" as="geometry" />
        </mxCell>
        <mxCell id="PpAkLhA8qPiQrUPgmIep-85" value="Home" style="rounded=1;whiteSpace=wrap;html=1;" parent="1" vertex="1">
          <mxGeometry x="540" y="130" width="90" height="40" as="geometry" />
        </mxCell>
        <mxCell id="PpAkLhA8qPiQrUPgmIep-86" value="About Me" style="rounded=1;whiteSpace=wrap;html=1;" parent="1" vertex="1">
          <mxGeometry x="740" y="130" width="90" height="40" as="geometry" />
        </mxCell>
        <mxCell id="PpAkLhA8qPiQrUPgmIep-88" value="Website Settings" style="rounded=1;whiteSpace=wrap;html=1;" parent="1" vertex="1">
          <mxGeometry x="640" y="130" width="90" height="40" as="geometry" />
        </mxCell>
        <mxCell id="PpAkLhA8qPiQrUPgmIep-89" value="New item Form" style="rounded=1;whiteSpace=wrap;html=1;" parent="1" vertex="1">
          <mxGeometry x="335" y="210" width="90" height="40" as="geometry" />
        </mxCell>
        <mxCell id="PpAkLhA8qPiQrUPgmIep-91" value="Change Details" style="rounded=1;whiteSpace=wrap;html=1;" parent="1" vertex="1">
          <mxGeometry x="530" y="230" width="90" height="40" as="geometry" />
        </mxCell>
        <mxCell id="PpAkLhA8qPiQrUPgmIep-92" value="Change Site name" style="rounded=1;whiteSpace=wrap;html=1;" parent="1" vertex="1">
          <mxGeometry x="530" y="290" width="90" height="40" as="geometry" />
        </mxCell>
        <mxCell id="PpAkLhA8qPiQrUPgmIep-93" value="Change password" style="rounded=1;whiteSpace=wrap;html=1;" parent="1" vertex="1">
          <mxGeometry x="750" y="290" width="90" height="40" as="geometry" />
        </mxCell>
        <mxCell id="PpAkLhA8qPiQrUPgmIep-95" value="Start/ Stop Products/ Services" style="rounded=1;whiteSpace=wrap;html=1;" parent="1" vertex="1">
          <mxGeometry x="640" y="290" width="90" height="40" as="geometry" />
        </mxCell>
        <mxCell id="PpAkLhA8qPiQrUPgmIep-96" value="Post to Social Media" style="rounded=1;whiteSpace=wrap;html=1;" parent="1" vertex="1">
          <mxGeometry x="750" y="230" width="90" height="40" as="geometry" />
        </mxCell>
        <mxCell id="PpAkLhA8qPiQrUPgmIep-97" value="Change Payment" style="rounded=1;whiteSpace=wrap;html=1;" parent="1" vertex="1">
          <mxGeometry x="640" y="230" width="90" height="40" as="geometry" />
        </mxCell>
        <mxCell id="PpAkLhA8qPiQrUPgmIep-99" value="Home" style="rounded=1;whiteSpace=wrap;html=1;" parent="1" vertex="1">
          <mxGeometry x="640" y="360" width="90" height="40" as="geometry" />
        </mxCell>
        <mxCell id="PpAkLhA8qPiQrUPgmIep-101" value="" style="endArrow=classic;html=1;exitX=0.625;exitY=1.013;exitDx=0;exitDy=0;exitPerimeter=0;" parent="1" source="PpAkLhA8qPiQrUPgmIep-84" edge="1">
          <mxGeometry width="50" height="50" relative="1" as="geometry">
            <mxPoint x="380" y="175" as="sourcePoint" />
            <mxPoint x="391" y="210" as="targetPoint" />
          </mxGeometry>
        </mxCell>
        <mxCell id="PpAkLhA8qPiQrUPgmIep-102" value="" style="endArrow=classic;html=1;exitX=0.5;exitY=1;exitDx=0;exitDy=0;entryX=0.5;entryY=0;entryDx=0;entryDy=0;" parent="1" source="PpAkLhA8qPiQrUPgmIep-88" target="PpAkLhA8qPiQrUPgmIep-97" edge="1">
          <mxGeometry width="50" height="50" relative="1" as="geometry">
            <mxPoint x="680" y="210" as="sourcePoint" />
            <mxPoint x="730" y="160" as="targetPoint" />
          </mxGeometry>
        </mxCell>
        <mxCell id="PpAkLhA8qPiQrUPgmIep-103" value="" style="endArrow=none;html=1;exitX=1;exitY=0.5;exitDx=0;exitDy=0;" parent="1" source="PpAkLhA8qPiQrUPgmIep-84" target="PpAkLhA8qPiQrUPgmIep-82" edge="1">
          <mxGeometry width="50" height="50" relative="1" as="geometry">
            <mxPoint x="415" y="175" as="sourcePoint" />
            <mxPoint x="465" y="125" as="targetPoint" />
          </mxGeometry>
        </mxCell>
        <mxCell id="LPC7ftKnPisbkBiRpErc-1" value="" style="endArrow=classic;html=1;entryX=0.347;entryY=0.988;entryDx=0;entryDy=0;entryPerimeter=0;" parent="1" target="PpAkLhA8qPiQrUPgmIep-84" edge="1">
          <mxGeometry width="50" height="50" relative="1" as="geometry">
            <mxPoint x="366" y="210" as="sourcePoint" />
            <mxPoint x="359.75" y="359.48" as="targetPoint" />
          </mxGeometry>
        </mxCell>
        <mxCell id="LPC7ftKnPisbkBiRpErc-2" value="" style="endArrow=classic;html=1;" parent="1" source="PpAkLhA8qPiQrUPgmIep-95" target="PpAkLhA8qPiQrUPgmIep-99" edge="1">
          <mxGeometry width="50" height="50" relative="1" as="geometry">
            <mxPoint x="690" y="334" as="sourcePoint" />
            <mxPoint x="689.75" y="389.48" as="targetPoint" />
          </mxGeometry>
        </mxCell>
      </root>
    </mxGraphModel>
  </diagram>
</mxfile>
